<svg width="52" height="42" viewBox="0 0 52 42" fill="none" xmlns="http://www.w3.org/2000/svg">
<g clip-path="url(#clip0_1959_302)">
<path d="M25.9661 41.9985C19.2613 41.9985 12.5564 42.0028 5.85159 41.9957C3.05694 41.9928 0.808543 40.2709 0.174379 37.645C0.0547528 37.1479 0.0100731 36.6207 0.00863177 36.1078C-0.0014572 27.6571 -0.0014572 19.205 0.00286665 10.7543C0.00430793 7.3118 2.4199 4.88073 5.88906 4.84921C8.31618 4.82772 10.7419 4.83632 13.169 4.85351C13.5509 4.85638 13.7397 4.75896 13.8521 4.3736C14.1015 3.51836 14.4042 2.67744 14.6938 1.83366C15.1161 0.605949 15.9406 0.00713642 17.2392 0.00713642C22.5416 0.00283872 27.8455 0.00140615 33.148 0.00713642C34.4221 0.00856898 35.2465 0.603084 35.6645 1.79928C35.9585 2.64163 36.2525 3.48541 36.5048 4.34065C36.6201 4.73174 36.8031 4.86067 37.2196 4.85781C40.1498 4.83775 43.0799 4.84205 46.01 4.84921C48.5279 4.85494 50.4232 5.92221 51.471 8.22434C51.7939 8.93346 51.9697 9.77151 51.9726 10.5523C52.0072 19.129 52.0057 27.7044 51.9885 36.2812C51.9827 39.5574 49.4691 41.9957 46.134 42C39.4118 42.0043 32.6897 41.9985 25.9661 41.9985ZM25.1691 11.3015C18.4527 11.3144 13.0018 16.741 13.0076 23.411C13.0133 30.091 18.4542 35.499 25.1777 35.5076C31.9229 35.5147 37.3839 30.0781 37.3594 23.3766C37.3364 16.6865 31.8855 11.2886 25.1691 11.3015ZM43.0367 11.3373C41.6487 11.3459 40.6355 12.3731 40.6499 13.7569C40.6629 15.0792 41.7208 16.1292 43.0496 16.1421C44.3915 16.155 45.533 15.0176 45.5128 13.6896C45.4912 12.3387 44.4275 11.3287 43.0367 11.3373Z" fill="#FF9900"/>
<path d="M17.8863 23.3952C17.8906 19.3812 21.145 16.1507 25.1849 16.1493C29.2537 16.1493 32.5023 19.3941 32.485 23.4425C32.4692 27.4565 29.2076 30.6727 25.1633 30.6626C21.1292 30.6526 17.882 27.4107 17.8863 23.3952Z" fill="#FF9900"/>
</g>
<defs>
<clipPath id="clip0_1959_302">
<rect width="52" height="42" fill="white"/>
</clipPath>
</defs>
</svg>
