<svg width="48" height="40" viewBox="0 0 48 40" fill="none" xmlns="http://www.w3.org/2000/svg">
<g clip-path="url(#clip0_1959_330)">
<path d="M9.53293 40C9.53293 38.8125 9.53293 37.6251 9.53293 36.3888C19.1457 36.3888 28.6946 36.3888 38.3553 36.3888C38.3553 37.5763 38.3553 38.7963 38.3553 40C28.7425 40 19.1297 40 9.53293 40Z" fill="#FF9900"/>
<path d="M15.9202 23.1151C16.2555 19.878 16.5908 16.6897 16.9421 13.4689C21.6208 13.4689 26.2675 13.4689 30.9621 13.4689C31.2974 16.6734 31.6327 19.8617 31.984 23.1151C26.6188 23.1151 21.3174 23.1151 15.9202 23.1151Z" fill="#FF9900"/>
<path d="M29.5409 0.0488281C29.8762 3.26965 30.2116 6.4742 30.5629 9.71129C26.1397 9.71129 21.7645 9.71129 17.3413 9.71129C17.6766 6.4742 18.0279 3.28592 18.3633 0.0488281C22.0998 0.0488281 25.7884 0.0488281 29.5409 0.0488281Z" fill="#FF9900"/>
<path d="M48 23.1313C43.8323 23.1313 39.7605 23.1313 35.6088 23.1313C35.2734 19.9268 34.9222 16.7222 34.5868 13.4526C34.8583 13.4363 35.0499 13.4201 35.2415 13.4201C38.7225 13.4201 42.2036 13.4201 45.6846 13.4038C46.1477 13.4038 46.3233 13.5177 46.4032 14.0057C46.9142 17.0313 47.4571 20.0244 48 23.1313Z" fill="#FF9900"/>
<path d="M0 23.1151C0.718563 19.878 1.43713 16.706 2.15569 13.4689C5.84431 13.4689 9.53293 13.4689 13.3014 13.4689C12.9661 16.6734 12.6307 19.878 12.2794 23.1151C8.19162 23.1151 4.1517 23.1151 0 23.1151Z" fill="#FF9900"/>
<path d="M45.6527 9.71129C41.7884 9.71129 38.004 9.71129 34.1876 9.71129C33.8523 6.49047 33.517 3.30218 33.1657 0.0488281C36.7904 0.0488281 40.3513 0.0488281 43.9601 0.0488281C44.519 3.25338 45.0779 6.44167 45.6527 9.71129Z" fill="#FF9900"/>
<path d="M14.7226 0.0650671C14.3872 3.30216 14.0519 6.49044 13.7006 9.71126C10.1397 9.71126 6.62676 9.71126 3.08185 9.71126C3.09782 9.5486 3.08185 9.4022 3.11378 9.27206C3.75251 6.34404 4.42317 3.41602 5.06189 0.50427C5.14173 0.130134 5.26947 0 5.65271 0C8.52696 0.0162668 11.3852 0 14.2595 0.0162668C14.3872 0.0162668 14.515 0.0325336 14.7226 0.0650671Z" fill="#FF9900"/>
<path d="M28.487 26.8727C28.487 28.7922 28.487 30.6954 28.487 32.6474C25.469 32.6474 22.4511 32.6474 19.4012 32.6474C19.4012 30.7442 19.4012 28.8248 19.4012 26.8727C22.4351 26.8727 25.4371 26.8727 28.487 26.8727Z" fill="#FF9900"/>
</g>
<defs>
<clipPath id="clip0_1959_330">
<rect width="48" height="40" fill="white"/>
</clipPath>
</defs>
</svg>
