<svg width="52" height="42" viewBox="0 0 52 42" fill="none" xmlns="http://www.w3.org/2000/svg">
<g clip-path="url(#clip0_1959_294)">
<path d="M52 21.2037C51.73 22.4686 51.4532 23.7321 51.1899 24.9983C50.7163 27.2797 50.2998 29.5743 49.7678 31.8423C49.126 34.5804 46.4854 36.3088 43.5882 35.9575C44.7742 33.783 44.4906 31.4376 44.2694 29.1589C44.0374 26.7628 42.5203 25.184 40.2366 24.3559C39.9055 24.2357 39.7928 24.1088 39.8037 23.7655C39.8525 22.3524 39.7562 20.9246 39.9299 19.5275C40.2325 17.0792 42.504 15.1198 45.0185 15.0276C45.9086 14.9955 46.8354 14.9715 47.6903 15.1705C49.9944 15.7075 51.3867 17.1954 51.9037 19.4727C51.9295 19.5849 51.9688 19.6931 52.0014 19.8026C52 20.2701 52 20.7362 52 21.2037Z" fill="#FF9900"/>
<path d="M5.99506 12.005C6.09276 9.9013 5.98149 7.84304 6.32751 5.86091C6.91779 2.47901 10.0931 0.0227184 13.5805 0.0147044C21.8565 -0.00399495 30.1313 -0.00800195 38.4074 0.01604C42.4945 0.0267254 45.8516 3.35654 45.9005 7.3809C45.9195 8.89554 45.9032 10.4115 45.9032 11.9302C45.1216 12.0183 44.3468 12.0504 43.595 12.2C39.6666 12.9787 36.8034 16.414 36.7654 20.3622C36.7546 21.5577 36.7641 22.7531 36.7641 23.9765C29.5844 23.9765 22.4495 23.9765 15.2292 23.9765C15.2292 23.8163 15.2319 23.6413 15.2292 23.4677C15.2034 22.1039 15.2875 20.7255 15.1274 19.3765C14.6267 15.1705 11.0009 12.0464 6.69525 12.0063C6.51206 12.0036 6.33022 12.005 5.99506 12.005ZM21.3233 7.54652C21.3477 6.73978 20.6787 6.03722 19.8564 6.00783C19.0354 5.97845 18.3176 6.62892 18.281 7.43833C18.243 8.26511 18.9309 8.98637 19.7723 9.0024C20.5932 9.01976 21.2988 8.35727 21.3233 7.54652ZM33.715 7.49577C33.7096 6.68635 33.0189 6.00917 32.1966 6.0065C31.3729 6.00516 30.6808 6.67834 30.6713 7.48909C30.6632 8.31854 31.3742 9.01575 32.2156 9.00373C33.0379 8.99171 33.7204 8.30651 33.715 7.49577ZM19.8197 18.0021C20.6421 17.9914 21.326 17.3076 21.3219 16.4982C21.3192 15.6887 20.6299 15.0102 19.8062 15.0062C18.9635 15.0022 18.2606 15.7074 18.2782 16.5356C18.2972 17.3436 18.9988 18.0128 19.8197 18.0021ZM33.715 16.5008C33.7136 15.6914 33.0257 15.0116 32.202 15.0062C31.3797 15.0009 30.6822 15.674 30.6713 16.4821C30.6591 17.3116 31.3675 18.0115 32.2088 18.0021C33.0324 17.9928 33.7164 17.3102 33.715 16.5008Z" fill="#FF9900"/>
<path d="M25.9979 27.0018C30.0105 27.0018 34.0216 27.0005 38.0342 27.0018C40.0655 27.0032 41.3316 28.2453 41.3356 30.2382C41.337 31.1544 41.3451 32.0707 41.3329 32.987C41.3099 34.6899 39.9963 35.9935 38.2621 35.9949C30.0851 36.0029 21.9094 36.0029 13.7324 35.9949C11.9996 35.9935 10.6833 34.6859 10.663 32.9856C10.6507 32.0026 10.6521 31.0195 10.663 30.0365C10.6806 28.3041 11.9941 27.0072 13.7595 27.0032C17.8386 26.9965 21.9176 27.0018 25.9979 27.0018Z" fill="#FF9900"/>
<path d="M8.33308 35.9655C5.44683 36.3087 2.80483 34.5403 2.18334 31.694C1.42616 28.2293 0.721899 24.7526 0.0827718 21.2665C-0.495293 18.1103 2.04222 15.1077 5.29621 15.0236C6.20265 15.0009 7.13896 15.0116 8.01419 15.2092C10.4242 15.7529 12.119 17.8846 12.1746 20.3128C12.2018 21.4949 12.176 22.6783 12.1882 23.8617C12.1909 24.1155 12.1176 24.229 11.8557 24.3198C9.15947 25.2494 7.60846 27.3972 7.61661 30.1981C7.62068 31.4456 7.60575 32.6998 7.72652 33.9393C7.79437 34.6285 8.12411 35.295 8.33308 35.9655Z" fill="#FF9900"/>
<path d="M9.13775 39.0215C10.1623 39.0215 11.1352 39.0215 12.1393 39.0215C12.1393 39.6265 12.2126 40.2423 12.1203 40.834C12.0036 41.5833 11.2627 42.0628 10.5232 41.992C9.75652 41.9199 9.1676 41.3041 9.14046 40.5214C9.12418 40.0419 9.13775 39.5611 9.13775 39.0215Z" fill="#FF9900"/>
<path d="M39.8145 39.0188C40.8445 39.0188 41.8174 39.0188 42.8392 39.0188C42.8392 39.6011 42.8948 40.1808 42.8256 40.7472C42.7334 41.5098 42.0006 42.0441 41.2421 41.9947C40.4754 41.9452 39.8552 41.3362 39.82 40.5642C39.7955 40.0686 39.8145 39.5704 39.8145 39.0188Z" fill="#FF9900"/>
</g>
<defs>
<clipPath id="clip0_1959_294">
<rect width="52" height="42" fill="white"/>
</clipPath>
</defs>
</svg>
