<svg width="62" height="62" viewBox="0 0 62 62" fill="none" xmlns="http://www.w3.org/2000/svg">
<g clip-path="url(#clip0_1811_139)">
<path d="M62 12.1446C61.6573 13.0855 61.4362 14.0958 60.9466 14.9519C59.2046 18.0102 55.5415 19.3511 52.2785 18.2255C49.0308 17.1049 46.8971 13.8365 47.2684 10.546C47.6803 6.88939 50.3998 4.16683 53.975 3.83626C57.7934 3.48196 61.2522 6.17061 61.8885 9.9815C61.9071 10.0968 61.9628 10.207 62 10.3206C62 10.9274 62 11.536 62 12.1446Z" fill="#FF9900"/>
<path d="M14.0546 38.9972C15.9283 38.9972 17.7193 38.982 19.512 39.0057C20.113 39.0142 20.7358 39.0345 21.3098 39.1922C23.8216 39.8804 25.383 41.9164 25.4016 44.6203C25.437 49.7484 25.4185 54.8748 25.4083 60.0029C25.4067 61.232 24.6622 61.9796 23.4418 61.9897C21.2017 62.005 18.9617 62.005 16.7217 61.9897C15.4641 61.9813 14.7517 61.2472 14.7484 59.9639C14.7399 56.782 14.745 53.6 14.745 50.418C14.745 50.1773 14.745 49.9383 14.745 49.6077C14.4867 49.6077 14.274 49.6077 14.0613 49.6077C11.8213 49.6077 9.58128 49.6128 7.34125 49.606C3.48408 49.5958 0.720761 46.8614 0.708945 42.9997C0.693752 37.7105 0.676872 32.4197 0.724137 27.1305C0.752834 23.9333 3.04182 21.3345 6.22377 20.7259C9.20822 20.1546 12.3615 21.8227 13.4958 24.703C13.8503 25.6014 14.0124 26.6254 14.0293 27.5967C14.09 31.1432 14.0529 34.6896 14.0529 38.236C14.0546 38.4564 14.0546 38.6785 14.0546 38.9972Z" fill="#FF9900"/>
<path d="M47.255 49.606C47.255 50.1044 47.255 50.5062 47.255 50.9096C47.255 53.8678 47.2567 56.8277 47.2533 59.7859C47.2516 61.3303 46.5831 61.9914 45.0301 61.9914C42.9522 61.9931 40.8725 61.9948 38.7945 61.9914C37.2702 61.9897 36.5883 61.2981 36.5883 59.752C36.5866 54.7867 36.5815 49.8213 36.5899 44.8559C36.595 41.3146 38.9026 39.0091 42.4339 38.9989C44.0274 38.9938 45.6226 38.9989 47.2162 38.9972C47.4339 38.9972 47.6517 38.9972 47.9454 38.9972C47.9454 38.7022 47.9454 38.4666 47.9454 38.2292C47.9454 34.6014 47.9285 30.9736 47.9521 27.3458C47.9741 23.9994 50.2242 21.3328 53.494 20.7174C57.3849 19.9868 61.2201 23.0314 61.2674 27.0118C61.3332 32.4824 61.3231 37.9563 61.2708 43.4285C61.237 46.78 58.4247 49.5348 55.0774 49.5924C52.7175 49.6331 50.3559 49.6026 47.9943 49.6043C47.7732 49.606 47.5555 49.606 47.255 49.606Z" fill="#FF9900"/>
<path d="M31.0076 31.1347C31.7723 29.0293 32.4762 27.095 33.1784 25.1607C34.063 22.7281 34.9458 20.2954 35.8304 17.8627C36.1528 16.9778 36.3874 16.8591 37.2838 17.1388C38.5717 17.5389 39.8867 17.8729 40.9671 18.7595C42.6247 20.1191 43.4097 21.8838 43.4113 24.0147C43.413 26.995 43.4164 29.9735 43.4096 32.9537C43.4063 33.9929 43.0552 34.3455 42.0187 34.3455C34.6724 34.3506 27.326 34.3506 19.9797 34.3455C19.0141 34.3455 18.5988 34.0048 18.5955 33.1368C18.587 29.9142 18.5752 26.6915 18.6309 23.4706C18.6765 20.7446 20.5907 18.4374 23.2123 17.6067C23.7305 17.4423 24.2504 17.2829 24.772 17.1253C25.6042 16.8744 25.854 16.9931 26.1478 17.8034C27.6754 22.0025 29.1997 26.2033 30.7274 30.4041C30.7949 30.5889 30.8692 30.772 31.0076 31.1347Z" fill="#FF9900"/>
<path d="M7.32944 18.6035C3.25114 18.5781 -0.038851 15.2232 -2.60859e-05 11.1292C0.0387988 7.07421 3.41488 3.73798 7.42397 3.79053C11.4854 3.84478 14.772 7.17423 14.7619 11.2225C14.7501 15.308 11.4077 18.6273 7.32944 18.6035Z" fill="#FF9900"/>
<path d="M30.9754 14.8214C26.9073 14.8113 23.5903 11.4479 23.619 7.36408C23.6477 3.31245 26.9984 -0.0186918 31.0227 -4.41578e-05C35.0605 0.0186035 38.3775 3.36162 38.3792 7.41154C38.3809 11.4971 35.0504 14.8316 30.9754 14.8214Z" fill="#FF9900"/>
<path d="M31.0093 16.9913C31.352 16.9913 31.698 16.954 32.0356 16.9998C32.6365 17.0812 32.9117 17.6135 32.6771 18.1695C32.6686 18.1882 32.6652 18.2102 32.6517 18.2238C31.3536 19.4579 31.7655 20.9836 32.0373 22.4229C32.2821 23.718 31.6474 24.7386 31.2557 25.8422C31.146 26.1541 30.8439 26.1405 30.7358 25.8286C30.3442 24.703 29.6504 23.6553 29.983 22.3466C30.1602 21.6465 30.2058 20.9056 30.2378 20.1801C30.253 19.8665 30.1298 19.524 29.9914 19.2307C29.8293 18.8866 29.5609 18.595 29.3769 18.2594C29.0393 17.6406 29.3415 17.0625 30.042 16.9879C30.3611 16.954 30.6869 16.9829 31.0093 16.9829C31.0093 16.9829 31.0093 16.9879 31.0093 16.9913Z" fill="#FF9900"/>
</g>
<defs>
<clipPath id="clip0_1811_139">
<rect width="62" height="62" fill="white"/>
</clipPath>
</defs>
</svg>
