<svg width="58" height="57" viewBox="0 0 58 57" fill="none" xmlns="http://www.w3.org/2000/svg">
<g clip-path="url(#clip0_1811_148)">
<path d="M0 53.8866C0 38.5652 0 23.2424 0 7.91957C0.0584058 7.74294 0.119807 7.56782 0.176715 7.39119C0.663431 5.86445 1.90493 4.82267 3.51184 4.77776C5.6429 4.71789 7.77547 4.76729 9.90803 4.77178C9.93648 4.77178 9.96494 4.81219 10.0383 4.86608C10.0383 5.03671 10.0383 5.24178 10.0383 5.44534C10.0383 7.1996 9.99788 8.95536 10.0578 10.7081C10.0817 11.4251 10.1911 12.1974 10.4921 12.8366C11.3173 14.5864 12.8268 15.215 14.7093 15.1836C17.3975 15.1387 19.1332 13.4323 19.1406 10.747C19.1451 8.95536 19.1421 7.16218 19.1421 5.3705C19.1421 5.17143 19.1421 4.97385 19.1421 4.79273C25.9142 4.79273 32.6039 4.79273 39.3131 4.79273C39.3131 6.81792 39.3011 8.7982 39.3161 10.7785C39.3296 12.6016 40.1173 13.9846 41.7946 14.7555C42.9493 15.2869 44.1953 15.2375 45.4083 14.992C47.4315 14.5849 48.408 13.3605 48.4214 11.2964C48.4349 9.33405 48.4244 7.37174 48.4244 5.41092C48.4244 5.20735 48.4244 5.00378 48.4244 4.78226C48.6131 4.76878 48.7404 4.75082 48.8692 4.75082C50.6244 4.74933 52.3796 4.73735 54.1347 4.75232C56.4036 4.77178 57.991 6.33894 57.9925 8.60511C58 23.452 58.0015 38.2988 57.9805 53.1457C57.979 53.7294 57.8457 54.3641 57.5942 54.8894C56.8663 56.4147 55.5574 57.0059 53.9041 56.9999C49.4877 56.985 45.0698 56.9955 40.6535 56.9955C28.517 56.9955 16.3806 57.0029 4.24416 56.9775C3.51034 56.976 2.73459 56.8353 2.05469 56.5629C0.886571 56.0944 0.342947 55.0436 0 53.8866ZM3.75445 53.2579C20.6173 53.2579 37.4277 53.2579 54.2485 53.2579C54.2485 41.9795 54.2485 30.7414 54.2485 19.4734C37.4067 19.4734 20.5963 19.4734 3.75445 19.4734C3.75445 30.7399 3.75445 41.978 3.75445 53.2579Z" fill="#FF9900"/>
<path d="M11.8938 6.70572C11.8938 5.32865 11.8878 3.95308 11.8953 2.57602C11.9043 1.04927 12.8388 0.125742 14.3753 0.109277C14.5266 0.10778 14.6778 0.10778 14.8276 0.109277C16.2877 0.127239 17.2537 0.978923 17.2762 2.43382C17.3196 5.29872 17.3226 8.1666 17.2732 11.0315C17.2492 12.452 16.2907 13.2977 14.8576 13.3336C14.5565 13.3411 14.251 13.3426 13.9545 13.3037C12.719 13.1435 11.9148 12.2559 11.8983 11.006C11.8804 9.57211 11.8938 8.13816 11.8938 6.70572Z" fill="#FF9900"/>
<path d="M46.5659 6.68924C46.5659 8.06631 46.5719 9.44188 46.5644 10.8189C46.5555 12.3292 45.6449 13.2453 44.1309 13.2528C43.6636 13.2543 43.1754 13.2528 42.7351 13.1225C41.868 12.8621 41.3633 12.2289 41.2226 11.3294C41.1851 11.0884 41.1731 10.8414 41.1716 10.5974C41.1686 7.9765 41.1776 5.35559 41.1656 2.73467C41.1612 1.72582 41.4053 0.818758 42.3712 0.360734C43.4045 -0.127226 44.5053 -0.13471 45.5191 0.441562C46.2215 0.84121 46.5555 1.52076 46.56 2.33503C46.5674 3.78693 46.5615 5.23884 46.5615 6.69074C46.5644 6.68925 46.5659 6.68924 46.5659 6.68924Z" fill="#FF9900"/>
<path d="M12.4989 49.6852C11.4805 49.6852 10.4606 49.6747 9.44228 49.6896C8.92562 49.6971 8.68301 49.504 8.6875 48.9607C8.70248 47.1885 8.70248 45.4162 8.6875 43.644C8.68301 43.1246 8.92562 42.9405 9.41083 42.942C11.467 42.948 13.5232 42.9495 15.5794 42.942C16.105 42.9405 16.3192 43.1695 16.3132 43.6994C16.2967 45.4342 16.3087 47.169 16.3057 48.9038C16.3042 49.5534 16.1679 49.6837 15.497 49.6866C14.4981 49.6881 13.4992 49.6852 12.4989 49.6852Z" fill="#FF9900"/>
<path d="M23.3863 49.6851C22.3679 49.6851 21.3481 49.6895 20.3297 49.6836C19.6947 49.6791 19.5749 49.5593 19.5734 48.9157C19.5689 47.1809 19.5689 45.4461 19.5734 43.7113C19.5749 43.0722 19.6932 42.9479 20.3327 42.9449C22.3709 42.9389 24.4076 42.9479 26.4459 42.9404C26.964 42.9389 27.1976 43.1485 27.1932 43.6858C27.1767 45.4386 27.1782 47.1929 27.1932 48.9471C27.1976 49.4815 26.967 49.697 26.4444 49.6896C25.4245 49.6746 24.4047 49.6851 23.3863 49.6851Z" fill="#FF9900"/>
<path d="M34.2513 49.6852C33.233 49.6852 32.2131 49.6747 31.1947 49.6896C30.6781 49.6971 30.4355 49.504 30.4415 48.9607C30.4579 47.1885 30.4564 45.4162 30.4415 43.644C30.437 43.1231 30.6811 42.9405 31.1648 42.942C33.221 42.948 35.2772 42.9495 37.3333 42.942C37.8605 42.9405 38.0717 43.171 38.0657 43.6994C38.0492 45.4342 38.0612 47.169 38.0582 48.9038C38.0567 49.5534 37.9219 49.6822 37.2495 49.6852C36.2506 49.6881 35.2502 49.6852 34.2513 49.6852Z" fill="#FF9900"/>
<path d="M45.0878 49.6851C44.0694 49.6851 43.0496 49.6777 42.0312 49.6881C41.534 49.6941 41.3154 49.4876 41.3199 48.9772C41.3348 47.2049 41.3348 45.4327 41.3184 43.6605C41.3139 43.1486 41.528 42.9405 42.0237 42.942C44.0994 42.948 46.1735 42.9465 48.2492 42.9435C48.7524 42.942 48.9456 43.1845 48.9426 43.6814C48.9291 45.4342 48.9276 47.1885 48.9426 48.9427C48.9471 49.4756 48.7254 49.6971 48.1998 49.6896C47.1634 49.6762 46.1256 49.6851 45.0878 49.6851Z" fill="#FF9900"/>
<path d="M34.2513 30.7894C33.2329 30.7894 32.2145 30.7744 31.1962 30.7954C30.675 30.8059 30.4369 30.6173 30.4414 30.0724C30.4564 28.3002 30.4534 26.528 30.4429 24.7573C30.4399 24.2828 30.6301 24.0672 31.1108 24.0687C33.2045 24.0762 35.2981 24.0747 37.3917 24.0687C37.8694 24.0672 38.0686 24.2798 38.0656 24.7573C38.0551 26.5295 38.0521 28.3017 38.0671 30.0724C38.0716 30.6188 37.826 30.8044 37.3078 30.7939C36.288 30.7774 35.2696 30.7894 34.2513 30.7894Z" fill="#FF9900"/>
<path d="M45.0848 30.7894C44.0665 30.7894 43.0481 30.7774 42.0297 30.7938C41.5236 30.8013 41.3169 30.5933 41.3214 30.0859C41.3349 28.3136 41.3364 26.5414 41.3199 24.7707C41.3154 24.2573 41.5311 24.0642 42.0297 24.0657C44.1039 24.0762 46.1796 24.0747 48.2537 24.0672C48.7225 24.0657 48.9441 24.2573 48.9411 24.7422C48.9306 26.5324 48.9321 28.3241 48.9396 30.1143C48.9411 30.5933 48.727 30.7953 48.2522 30.7908C47.1964 30.7819 46.1406 30.7894 45.0848 30.7894Z" fill="#FF9900"/>
<path d="M12.5168 40.2253C11.479 40.2253 10.4427 40.2148 9.40485 40.2298C8.90765 40.2373 8.68301 40.0442 8.6875 39.5293C8.70098 37.757 8.69949 35.9848 8.689 34.2141C8.68601 33.7127 8.88668 33.4986 9.39586 33.5016C11.47 33.5136 13.5457 33.5121 15.6198 33.5031C16.0916 33.5016 16.3132 33.6947 16.3117 34.1752C16.3042 35.9654 16.3027 37.757 16.3132 39.5472C16.3162 40.0292 16.1021 40.2313 15.6303 40.2268C14.5925 40.2193 13.5547 40.2253 12.5168 40.2253Z" fill="#FF9900"/>
<path d="M23.3728 40.2253C22.3545 40.2253 21.3361 40.2133 20.3178 40.2313C19.8011 40.2403 19.56 40.0607 19.566 39.5098C19.5854 37.7571 19.5824 36.0043 19.5675 34.2501C19.563 33.7277 19.7502 33.4972 20.2938 33.5002C22.35 33.5151 24.4047 33.5151 26.4609 33.5016C27.0015 33.4987 27.1962 33.7307 27.1917 34.253C27.1782 36.0058 27.1782 37.7586 27.1917 39.5128C27.1947 40.0158 26.9895 40.2358 26.4848 40.2298C25.447 40.2163 24.4092 40.2253 23.3728 40.2253Z" fill="#FF9900"/>
<path d="M34.2558 33.5076C35.2741 33.5076 36.2925 33.5211 37.3109 33.5016C37.8335 33.4911 38.0701 33.6857 38.0656 34.2291C38.0507 36.0013 38.0537 37.7735 38.0641 39.5442C38.0671 40.0247 37.8605 40.2298 37.3857 40.2283C35.2921 40.2223 33.1985 40.2208 31.1049 40.2283C30.6197 40.2298 30.4384 40.0068 30.4414 39.5353C30.4534 37.763 30.4564 35.9908 30.4399 34.2201C30.4354 33.6723 30.6826 33.4926 31.1992 33.5031C32.2191 33.5211 33.2374 33.5076 34.2558 33.5076Z" fill="#FF9900"/>
<path d="M45.1298 33.5076C46.1481 33.5076 47.1665 33.5211 48.1848 33.5016C48.7045 33.4927 48.9471 33.6813 48.9426 34.2261C48.9276 35.9983 48.9306 37.7705 48.9411 39.5413C48.9441 40.0203 48.7404 40.2283 48.2657 40.2268C46.1721 40.2208 44.0785 40.2208 41.9848 40.2268C41.5475 40.2283 41.3199 40.0607 41.3229 39.5937C41.3319 37.784 41.3319 35.9744 41.3229 34.1647C41.3199 33.6738 41.552 33.4972 42.0178 33.5031C43.0541 33.5166 44.0919 33.5076 45.1298 33.5076Z" fill="#FF9900"/>
</g>
<defs>
<clipPath id="clip0_1811_148">
<rect width="58" height="57" fill="white"/>
</clipPath>
</defs>
</svg>
