<svg width="56" height="38" viewBox="0 0 56 38" fill="none" xmlns="http://www.w3.org/2000/svg">
<path d="M28.0175 0.00574985C33.2596 0.00574985 38.5033 -0.00990411 43.7454 0.010446C49.7258 0.0323616 54.5744 3.97872 55.794 9.76443C56.1671 11.5365 55.9476 13.3007 55.8018 15.0711C55.4946 18.7874 55.2124 22.5052 54.8973 26.2214C54.7343 28.1453 54.6685 30.0927 54.3048 31.9805C53.7467 34.8765 51.3044 36.9037 48.2491 37.2872C45.6469 37.6144 43.1152 36.2165 41.7467 33.6821C39.2792 29.1158 36.8087 24.5512 34.3664 19.9708C33.8773 19.0535 33.2079 18.6449 32.1639 18.659C29.3673 18.695 26.5691 18.6903 23.7725 18.6606C22.7786 18.6496 22.1249 19.0378 21.6562 19.9145C19.1825 24.5449 16.6916 29.1644 14.185 33.7776C12.8807 36.1773 10.8287 37.3858 8.09637 37.3013C4.66801 37.1949 1.78361 34.4664 1.49517 31.0726C1.03899 25.7033 0.639254 20.3308 0.184647 14.9615C0.0357243 13.2255 -0.144551 11.5098 0.187782 9.77069C1.19732 4.47495 5.90172 0.329787 11.2927 0.0401886C11.7222 0.0167076 12.1533 0.00574985 12.5829 0.00574985C17.7278 0.00418445 22.8727 0.00418445 28.0175 0.00574985ZM3.71177 12.0499C3.77761 16.8244 7.49441 20.5672 12.1377 20.5312C16.8468 20.4952 20.5714 16.6725 20.5118 11.9372C20.4538 7.38816 16.5709 3.64686 11.9934 3.72826C7.41603 3.80966 3.65063 7.59322 3.71177 12.0499ZM35.4731 11.8041C35.2019 16.3172 38.8011 20.2494 43.5369 20.5077C47.7522 20.7363 52.1963 17.521 52.2732 12.1235C52.3327 7.8296 48.942 3.9662 44.1827 3.72826C39.6461 3.50284 35.7584 7.09073 35.4731 11.8041Z" fill="#FF9900"/>
<path d="M10.2423 13.9971C9.64037 13.9971 9.11679 14.0002 8.59321 13.9971C7.34696 13.9893 6.50986 13.2269 6.51769 12.1108C6.52553 11.0213 7.3595 10.2652 8.56656 10.2558C9.09171 10.2511 9.61686 10.2558 10.2611 10.2558C10.2611 9.54511 10.2251 8.87042 10.2705 8.202C10.3238 7.42243 10.8741 6.81349 11.614 6.6053C12.3539 6.39866 13.1502 6.63347 13.5798 7.28781C13.7914 7.61184 13.909 8.0345 13.9497 8.42429C14.0109 9.00035 13.9654 9.58737 13.9654 10.2558C14.5501 10.2558 15.0894 10.2527 15.6271 10.2558C16.8718 10.2636 17.712 11.0291 17.7042 12.1437C17.6963 13.2285 16.8592 13.9877 15.6506 13.9971C15.1098 14.0018 14.5674 13.9971 13.9654 13.9971C13.9654 14.6436 13.9764 15.2259 13.9638 15.8067C13.9388 16.9119 13.133 17.7353 12.0984 17.729C11.0888 17.7227 10.2925 16.926 10.247 15.8443C10.222 15.2619 10.2423 14.6765 10.2423 13.9971Z" fill="#FF9900"/>
<path d="M49.4874 12.1389C49.4795 15.2008 46.9431 17.7289 43.88 17.7305C40.8122 17.7321 38.2821 15.2133 38.2664 12.1452C38.2508 9.06759 40.8201 6.50504 43.9036 6.52539C46.9745 6.54417 49.4952 9.07855 49.4874 12.1389ZM43.8847 13.9939C44.9005 13.9876 45.7486 13.1314 45.7439 12.117C45.7392 11.101 44.8817 10.2542 43.8659 10.2589C42.8532 10.2636 41.9973 11.1261 42.0036 12.1358C42.0099 13.147 42.8721 14.0002 43.8847 13.9939Z" fill="#FF9900"/>
</svg>
