<svg width="40" height="45" viewBox="0 0 40 45" fill="none" xmlns="http://www.w3.org/2000/svg">
<g clip-path="url(#clip0_1811_194)">
<path d="M10.5557 45C10.5513 43.4769 10.5426 41.9539 10.5415 40.4308C10.5393 37.1942 10.5404 33.9565 10.5404 30.7198C10.5404 30.5481 10.5404 30.3774 10.5404 30.1846C16.8618 30.1846 23.1295 30.1846 29.4202 30.1846C29.4323 30.319 29.4498 30.4313 29.4498 30.5447C29.4509 35.3055 29.4509 40.0652 29.4498 44.826C29.4498 44.8844 29.441 44.9427 29.4367 45.0011C23.1437 45 16.8497 45 10.5557 45ZM14.3271 35.9608C18.1313 35.9608 21.8939 35.9608 25.6543 35.9608C25.6543 35.0809 25.6543 34.2373 25.6543 33.3937C21.8644 33.3937 18.1028 33.3937 14.3271 33.3937C14.3271 34.2615 14.3271 35.0941 14.3271 35.9608ZM14.3358 41.7909C18.1313 41.7909 21.8917 41.7909 25.6609 41.7909C25.6609 40.9165 25.6609 40.074 25.6609 39.2073C21.8797 39.2073 18.1192 39.2073 14.3358 39.2073C14.3358 40.0696 14.3358 40.9132 14.3358 41.7909Z" fill="#FF9900"/>
<path d="M40 33.0215C37.3504 33.0215 34.7358 33.0215 32.0972 33.0215C32.0972 32.0788 32.0972 31.1604 32.0972 30.1868C32.8578 30.1868 33.6206 30.1868 34.4228 30.1868C34.4228 29.2805 34.4228 28.4292 34.4228 27.5493C24.8018 27.5493 15.1971 27.5493 5.56075 27.5493C5.56075 28.4138 5.56075 29.2563 5.56075 30.1527C6.33341 30.1527 7.09622 30.1527 7.88858 30.1527C7.88858 31.135 7.88858 32.0634 7.88858 33.0182C5.26197 33.0182 2.6474 33.0182 -0.00109863 33.0182C-0.00109863 26.2906 -0.00109863 19.5618 -0.00109863 12.8088C13.3333 12.8088 26.6535 12.8088 39.9989 12.8088C40 19.5475 40 26.2663 40 33.0215ZM32.2176 18.5508C32.2176 17.6797 32.2176 16.8362 32.2176 15.9706C31.2435 15.9706 30.2925 15.9706 29.3206 15.9706C29.3206 16.8417 29.3206 17.683 29.3206 18.5508C30.3012 18.5508 31.2534 18.5508 32.2176 18.5508ZM32.2154 21.7688C31.226 21.7688 30.275 21.7688 29.3305 21.7688C29.3305 22.6487 29.3305 23.4889 29.3305 24.3457C30.3078 24.3457 31.249 24.3457 32.2154 24.3457C32.2154 23.4812 32.2154 22.6377 32.2154 21.7688Z" fill="#FF9900"/>
<path d="M10.5579 10.1162C10.5579 6.73095 10.5579 3.37979 10.5579 0C16.8453 0 23.1164 0 29.4191 0C29.4191 3.36107 29.4191 6.72324 29.4191 10.1162C23.1492 10.1162 16.8782 10.1162 10.5579 10.1162Z" fill="#FF9900"/>
</g>
<defs>
<clipPath id="clip0_1811_194">
<rect width="40" height="45" fill="white"/>
</clipPath>
</defs>
</svg>
