<svg width="44" height="64" viewBox="0 0 44 64" fill="none" xmlns="http://www.w3.org/2000/svg">
<g clip-path="url(#clip0_1811_129)">
<path d="M21.4197 64C20.7441 63.7077 20.3197 63.1798 19.9519 62.5517C14.3885 53.0346 8.7002 43.591 3.27322 33.9955C-0.552794 27.2315 -1.15024 20.0415 2.1349 12.8799C5.45666 5.64476 11.2032 1.34145 19.0882 0.220519C30.5962 -1.41661 41.2804 6.25283 43.5354 17.701C44.6754 23.4894 43.7018 29.0139 40.7345 34.0823C35.1861 43.5593 29.5161 52.9644 23.9077 62.4063C23.5216 63.0562 23.1106 63.6559 22.4166 64.0017C22.0854 64 21.7526 64 21.4197 64ZM21.909 12.94C16.6967 12.93 12.468 17.1464 12.458 22.3652C12.448 27.5806 16.6718 31.8421 21.8608 31.8538C27.0631 31.8655 31.2802 27.6458 31.2968 22.412C31.3151 17.1748 27.128 12.95 21.909 12.94Z" fill="#FF9900"/>
</g>
<defs>
<clipPath id="clip0_1811_129">
<rect width="44" height="64" fill="white"/>
</clipPath>
</defs>
</svg>
