<svg width="53" height="46" viewBox="0 0 53 46" fill="none" xmlns="http://www.w3.org/2000/svg">
<g clip-path="url(#clip0_1959_327)">
<path d="M12.4021 46C12.4021 44.8323 12.4021 43.7089 12.4021 42.5263C15.0122 42.5263 17.6224 42.5263 20.2768 42.5263C20.2768 41.3143 20.2768 40.1613 20.2768 38.9492C20.0556 38.9492 19.8344 38.9492 19.628 38.9492C13.8178 38.9492 8.00751 38.9492 2.19727 38.9492C0.634112 38.964 0 38.3284 0 36.7911C0 25.232 0 13.6877 0 2.14332C0 0.650385 0.634112 0 2.10879 0C18.3745 0 34.6402 0 50.8912 0C52.3659 0 53 0.650385 53 2.14332C53 13.6877 53 25.2468 53 36.7911C53 38.3284 52.3659 38.964 50.8027 38.964C45.0072 38.964 39.2265 38.964 33.431 38.964C33.2098 38.964 32.9886 38.964 32.7231 38.964C32.7231 40.1465 32.7231 41.2847 32.7231 42.4968C35.3481 42.4968 37.9435 42.4968 40.5832 42.4968C40.5832 43.6941 40.5832 44.8323 40.5832 46.0148C31.2042 46 21.84 46 12.4021 46ZM3.99638 27.8483C19.0234 27.8483 34.0061 27.8483 48.9889 27.8483C48.9889 19.8811 48.9889 11.973 48.9889 4.02057C33.9766 4.02057 18.9939 4.02057 3.99638 4.02057C3.99638 11.9582 3.99638 19.8811 3.99638 27.8483ZM24.7451 33.6427C24.7451 34.6183 25.5267 35.4017 26.5 35.4017C27.488 35.4017 28.2696 34.5887 28.2549 33.5983C28.2401 32.6227 27.4585 31.8541 26.4853 31.8689C25.512 31.8837 24.7451 32.6671 24.7451 33.6427Z" fill="#FF9900"/>
</g>
<defs>
<clipPath id="clip0_1959_327">
<rect width="53" height="46" fill="white"/>
</clipPath>
</defs>
</svg>
