<svg width="46" height="46" viewBox="0 0 46 46" fill="none" xmlns="http://www.w3.org/2000/svg">
<g clip-path="url(#clip0_1811_171)">
<path d="M12.4936 0C13.2988 0.153653 14.1197 0.249687 14.9057 0.471764C17.5134 1.21002 19.6039 2.70574 21.2323 4.92891C19.6423 5.83883 18.0762 6.73314 16.4873 7.64306C15.6533 6.70673 14.6393 6.01529 13.414 5.66597C9.46591 4.53758 5.50337 7.469 5.41456 11.5888C5.39296 12.6068 5.40856 13.6247 5.40856 14.6427C5.40856 24.8078 5.40856 34.973 5.40856 45.1381C5.40856 45.9436 5.35096 46 4.53973 46C3.25209 46 1.96564 46.0024 0.678 45.9988C0.149981 45.9976 0.00837657 45.8596 0.00837657 45.3386C0.00837657 34.051 -0.0180244 22.7623 0.021577 11.4748C0.0419777 5.61555 4.71014 0.618215 10.5327 0.0768267C10.6491 0.066023 10.762 0.0264092 10.8772 0C11.416 0 11.9548 0 12.4936 0Z" fill="#FF9900"/>
<path d="M46 28.1246C45.5632 29.0069 44.9656 29.4391 44.3068 29.0897C43.6059 28.7176 42.9759 28.1462 42.4443 27.5472C42.0783 27.1343 42.3027 26.3828 42.7203 25.9999C43.1463 25.6097 43.8303 25.4897 44.2984 25.827C44.944 26.2928 45.652 26.7177 46 27.4956C46 27.7057 46 27.9157 46 28.1246Z" fill="#FF9900"/>
<path d="M31.8083 10.5157C26.7825 13.3595 21.7928 16.1828 16.7778 19.0206C15.5477 17.2044 15.1313 15.2753 15.7757 13.1746C16.2498 11.6285 17.1726 10.4016 18.5706 9.57455C19.9339 8.76787 21.3079 7.97919 22.7024 7.22773C25.6917 5.61797 29.3926 6.61072 31.2059 9.48332C31.4051 9.79903 31.5827 10.1279 31.8083 10.5157Z" fill="#FF9900"/>
<path d="M18.3354 26.1559C17.5086 26.1079 16.9722 25.8558 16.6158 25.2916C16.4166 24.9759 16.2402 24.6446 16.0578 24.3181C15.5622 23.4309 15.7626 22.7011 16.641 22.2041C19.2043 20.7528 21.77 19.3039 24.3345 17.8526C27.7186 15.9379 31.1015 14.0221 34.4856 12.1074C35.5032 11.5312 36.1741 11.7197 36.7513 12.7388C36.8545 12.9213 36.9589 13.1026 37.0609 13.285C37.7557 14.5226 37.4905 15.4686 36.2437 16.1768C34.2672 17.2992 32.2871 18.4168 30.3095 19.5356C26.6253 21.6195 22.9436 23.7058 19.2547 25.7802C18.9235 25.9662 18.5467 26.0719 18.3354 26.1559Z" fill="#FF9900"/>
<path d="M24.2492 37.3174C24.2312 36.4651 24.7149 35.8781 25.4133 35.7797C26.0721 35.686 26.7321 36.1242 26.8857 36.8084C26.9997 37.3162 27.0801 37.836 27.1197 38.3546C27.1725 39.0592 26.6517 39.6558 25.9473 39.7614C25.2933 39.8599 24.6068 39.4073 24.4664 38.7423C24.3584 38.2321 24.308 37.7099 24.2492 37.3174Z" fill="#FF9900"/>
<path d="M25.2045 31.7247C24.5672 31.7138 24.0332 31.2793 23.9024 30.6407C23.8124 30.2025 23.7416 29.7596 23.678 29.3178C23.576 28.6048 24.0524 27.9457 24.7629 27.7969C25.4241 27.6576 26.1477 28.0982 26.3109 28.7776C26.4285 29.2698 26.5137 29.7728 26.5665 30.2769C26.6469 31.0524 25.9857 31.7367 25.2045 31.7247Z" fill="#FF9900"/>
<path d="M35.748 22.5066C35.76 21.8212 35.9881 21.4035 36.4669 21.1562C36.9577 20.9029 37.4593 20.9305 37.9009 21.2642C38.2921 21.5607 38.6653 21.886 39.0146 22.2317C39.497 22.7095 39.5318 23.4682 39.1298 23.9904C38.7241 24.5173 37.9573 24.713 37.4101 24.3373C36.9109 23.9952 36.4561 23.5738 36.0337 23.1369C35.8524 22.952 35.8044 22.6399 35.748 22.5066Z" fill="#FF9900"/>
<path d="M36.2821 30.4666C36.2857 29.8099 36.6025 29.3214 37.0969 29.1257C37.6345 28.9132 38.1565 28.9841 38.5442 29.4042C38.9258 29.8183 39.2678 30.2841 39.5534 30.7703C39.8702 31.3081 39.695 31.9983 39.2234 32.392C38.7338 32.8014 37.9873 32.8638 37.5397 32.4052C37.0873 31.9431 36.7417 31.3729 36.3721 30.8339C36.2869 30.7103 36.2941 30.5218 36.2821 30.4666Z" fill="#FF9900"/>
<path d="M31.9295 36.2298C31.5023 36.2202 31.0859 35.9597 30.8471 35.4603C30.6491 35.0438 30.4763 34.6105 30.3286 34.1735C30.0994 33.4941 30.439 32.7726 31.0835 32.5037C31.7483 32.2264 32.5079 32.5097 32.8199 33.1808C33.0203 33.6129 33.2063 34.0571 33.3492 34.5108C33.6228 35.3823 32.9735 36.2322 31.9295 36.2298Z" fill="#FF9900"/>
<path d="M32.976 26.4956C32.9856 27.3599 32.6327 27.8629 32.0651 28.0502C31.4843 28.2422 30.8663 28.0502 30.5279 27.528C30.2687 27.127 30.0311 26.7081 29.8295 26.2759C29.5366 25.6493 29.7946 24.8991 30.3827 24.5617C30.9899 24.2136 31.7903 24.3769 32.1647 24.9819C32.5043 25.5329 32.7792 26.1247 32.976 26.4956Z" fill="#FF9900"/>
</g>
<defs>
<clipPath id="clip0_1811_171">
<rect width="46" height="46" fill="white"/>
</clipPath>
</defs>
</svg>
