<svg width="76" height="57" viewBox="0 0 76 57" fill="none" xmlns="http://www.w3.org/2000/svg">
<g clip-path="url(#clip0_1811_131)">
<path d="M76 38.885C75.9702 38.9246 75.9267 38.9583 75.9148 39.002C74.9739 42.6265 72.7692 44.3377 69.0293 44.3377C67.1791 44.3377 65.329 44.3377 63.3977 44.3377C63.1085 36.3093 59.6657 30.0535 52.9506 25.5029C53.4062 25.0707 53.8202 24.6226 54.2896 24.2439C55.8347 22.9986 57.6096 22.2472 59.5885 22.2016C62.229 22.1401 64.8833 22.0687 67.5119 22.265C71.6619 22.5743 75.0788 25.8361 75.8395 29.9326C75.8791 30.1487 75.9445 30.3589 75.998 30.573C76 33.345 76 36.115 76 38.885Z" fill="#FF9900"/>
<path d="M37.9891 56.994C34.9247 56.994 31.8623 56.998 28.7979 56.992C23.2277 56.9821 19.0679 52.8103 19.0619 47.2286C19.0599 44.8076 18.9787 42.3906 19.6483 40.0151C21.534 33.339 27.6767 28.5684 34.6078 28.5109C37.4701 28.4871 40.3503 28.4137 43.1948 28.6675C49.7753 29.2524 55.5693 34.7171 56.7064 41.2703C57.1936 44.0839 57.3204 46.9471 56.7083 49.7468C55.7971 53.9167 51.9622 56.9365 47.6954 56.9821C44.4586 57.0158 41.2219 56.988 37.9852 56.988C37.9891 56.992 37.9891 56.992 37.9891 56.994Z" fill="#FF9900"/>
<path d="M50.6766 12.682C50.6627 19.6695 45.0271 25.3225 38.0564 25.3403C31.0759 25.3582 25.3928 19.6556 25.4027 12.6443C25.4126 5.6232 31.0779 -0.0198981 38.0961 -6.99776e-05C45.0667 0.0197582 50.6924 5.69259 50.6766 12.682Z" fill="#FF9900"/>
<path d="M23.1168 25.5208C16.4214 30.0595 12.9826 36.2895 12.6855 44.3397C11.9942 44.3397 11.3326 44.3437 10.6729 44.3397C9.06844 44.3258 7.45403 44.4091 5.86141 44.2683C2.80097 43.9987 0.427886 41.8295 0.180277 38.774C-0.0415801 36.0258 -0.0891209 33.2181 0.215933 30.4838C0.742844 25.7806 4.31435 22.497 9.04269 22.2095C11.7208 22.0469 14.4287 22.1084 17.1088 22.2869C19.5175 22.4475 21.4825 23.6689 23.1168 25.5208Z" fill="#FF9900"/>
<path d="M22.2075 9.48381C22.2154 14.7264 17.9902 18.9815 12.7647 18.9974C7.52134 19.0112 3.21691 14.7105 3.23474 9.47389C3.25454 4.24719 7.51539 0 12.7389 0C17.9684 0 22.2016 4.23728 22.2075 9.48381Z" fill="#FF9900"/>
<path d="M53.8717 9.46399C53.8895 4.21548 58.1226 -0.00792011 63.36 1.11525e-05C68.5777 0.00794241 72.8405 4.27496 72.8444 9.49175C72.8484 14.7323 68.544 19.0172 63.2947 18.9954C58.0751 18.9756 53.8558 14.7066 53.8717 9.46399Z" fill="#FF9900"/>
</g>
<defs>
<clipPath id="clip0_1811_131">
<rect width="76" height="57" fill="white"/>
</clipPath>
</defs>
</svg>
