<svg width="55" height="43" viewBox="0 0 55 43" fill="none" xmlns="http://www.w3.org/2000/svg">
<path d="M54.1917 8.32771C53.4926 6.90381 52.8693 6.62271 50.8411 6.85696C50.8411 7.07113 50.8411 7.29701 50.8411 7.5229C50.8411 15.3802 50.8378 23.2376 50.8444 31.0949C50.8461 32.3866 50.5691 33.5729 49.7463 34.5936C48.7883 35.7849 47.5483 36.3739 46.0428 36.4893C44.2521 36.6265 42.4482 36.7202 40.6839 37.0281C37.6269 37.5602 34.7858 38.6879 32.324 40.6707C32.075 40.8698 31.8392 41.0856 31.5985 41.2964C31.5474 41.3416 31.5078 41.3985 31.427 41.4922C32.512 41.3015 33.5343 41.0906 34.5681 40.9467C37.6186 40.5184 40.6889 40.408 43.7459 40.7577C46.3842 41.0588 49.0076 41.5206 51.631 41.944C52.8924 42.1464 53.5717 41.785 54.1917 40.4531C54.1917 29.7413 54.1917 19.0345 54.1917 8.32771Z" fill="#FF9900"/>
<path d="M28.6156 39.8458C29.4203 39.1631 30.1458 38.4838 30.934 37.8915C33.8558 35.6929 37.1668 34.438 40.7416 33.911C42.3757 33.67 44.0345 33.573 45.685 33.4642C47.0734 33.3739 47.8368 32.6293 47.8368 31.2272C47.8385 21.5628 47.8385 11.8983 47.8368 2.23227C47.8368 0.719698 46.9992 -0.0432811 45.502 0.00189532C42.7912 0.0838821 40.1315 0.428561 37.5543 1.3254C34.0306 2.55185 31.1038 4.58981 29.0641 7.8057C28.8019 8.21898 28.6107 8.76612 28.6107 9.25135C28.5843 19.3642 28.5909 29.4753 28.5925 39.5881C28.5925 39.6567 28.6041 39.7253 28.6156 39.8458Z" fill="#FF9900"/>
<path d="M25.5981 39.8358C25.5981 39.5764 25.5981 39.3639 25.5981 39.1497C25.5981 29.5021 25.5701 19.8561 25.6278 10.2084C25.6361 8.76443 25.1546 7.66848 24.3054 6.60935C21.6325 3.27299 18.0956 1.43414 14.0245 0.624311C12.2008 0.261227 10.3244 0.154142 8.46442 0.00857361C7.17828 -0.0918184 6.35218 0.81171 6.35218 2.18875C6.34888 7.53965 6.35053 12.8922 6.35053 18.2431C6.35053 22.5215 6.35053 26.7982 6.35053 31.0766C6.35053 32.6845 7.07275 33.4274 8.67218 33.4575C12.5339 33.5311 16.2769 34.1736 19.8122 35.8234C21.7496 36.7269 23.5057 37.9049 25.0425 39.4124C25.1694 39.5363 25.2964 39.6617 25.4267 39.7805C25.4514 39.8023 25.491 39.8023 25.5981 39.8358Z" fill="#FF9900"/>
<path d="M3.34953 6.82517C2.73614 6.82517 2.20519 6.78836 1.68249 6.83354C0.808575 6.90883 0.107794 7.66512 0.0138054 8.57701C-0.00268364 8.73597 0.000617981 8.89827 0.000617981 9.06057C0.000617981 19.2821 -0.00433159 29.5037 0.0138054 39.727C0.0138054 40.1888 0.122637 40.7025 0.34194 41.1023C0.724485 41.8001 1.39723 42.1063 2.18376 41.9741C3.59027 41.7382 4.98524 41.4169 6.3934 41.2011C11.8381 40.3678 17.2745 40.254 22.8511 41.5474C22.4916 41.2178 22.2558 40.9802 21.9969 40.7694C19.3571 38.616 16.2901 37.4615 12.9907 36.9277C11.4819 36.6834 9.94348 36.5864 8.4133 36.5077C5.33151 36.3471 3.35448 34.2958 3.35283 31.1485C3.34623 23.8266 3.35118 16.5046 3.35118 9.18271C3.34953 8.41304 3.34953 7.64671 3.34953 6.82517Z" fill="#FF9900"/>
</svg>
