<svg width="62" height="62" viewBox="0 0 62 62" fill="none" xmlns="http://www.w3.org/2000/svg">
<g clip-path="url(#clip0_1811_203)">
<path d="M32.9027 62C31.6111 62 30.3211 62 29.0295 62C28.9551 61.9725 28.884 61.9272 28.808 61.9175C27.6102 61.7607 26.3994 61.6702 25.2161 61.4439C19.6019 60.3754 14.6408 57.9328 10.4104 54.1C3.78752 48.0995 0.237645 40.615 0.0113318 31.666C-0.177801 24.2559 2.15322 17.6411 6.72474 11.8087C15.2794 0.893912 30.3146 -3.06333 42.9914 2.51851C53.169 6.99951 59.3408 14.8461 61.4811 25.798C61.6929 26.8811 61.7931 27.9852 61.9451 29.0795C61.9451 30.3711 61.9451 31.6611 61.9451 32.9527C61.9095 33.1079 61.8642 33.2615 61.8416 33.4183C61.6783 34.5951 61.5716 35.7816 61.3502 36.9472C58.9852 49.375 48.7769 59.3861 36.3006 61.5247C35.1739 61.7171 34.0358 61.8416 32.9027 62ZM31.0275 32.8299C26.2879 32.8299 21.5498 32.8299 16.8102 32.8299C15.2874 32.8299 14.6004 33.5266 14.6408 35.0639C14.657 35.6879 14.6974 36.3151 14.7896 36.931C16.0973 45.7022 23.8356 51.7318 32.6828 50.8832C40.7282 50.1121 47.162 43.1481 47.2961 35.0655C47.322 33.5282 46.6431 32.8299 45.1235 32.8299C40.4259 32.8299 35.7267 32.8299 31.0275 32.8299ZM24.1298 27.8074C25.3018 27.817 26.102 27.0783 26.1375 26.0793C26.1796 24.9316 26.1585 23.7806 26.2119 22.6329C26.2264 22.3144 26.338 21.9604 26.5126 21.6953C27.1123 20.7884 27.7734 19.922 28.3893 19.0248C29.1895 17.8593 28.7724 16.5903 27.4356 16.1199C26.3913 15.753 25.3341 15.4248 24.2963 15.0433C24.0328 14.9463 23.7677 14.754 23.5947 14.5341C22.9223 13.679 22.3145 12.7721 21.6242 11.9331C21.3575 11.6098 20.9711 11.3172 20.5799 11.1798C19.7587 10.8921 19.0669 11.1944 18.4849 11.9638C17.7429 12.9418 17.1675 14.1478 16.2169 14.838C15.268 15.5283 13.9457 15.7045 12.7851 16.1021C11.3706 16.5855 10.9422 17.8415 11.7909 19.0636C12.4117 19.9575 13.0615 20.8305 13.6661 21.7341C13.8229 21.9685 13.928 22.2789 13.9393 22.5585C13.9845 23.6868 13.9748 24.8152 14.0039 25.9435C14.0395 27.282 15.1129 28.0708 16.4061 27.712C16.8134 27.5988 17.2337 27.5051 17.612 27.3256C19.2544 26.5497 20.8741 26.5497 22.5262 27.3143C23.0839 27.5746 23.7127 27.6829 24.1298 27.8074ZM50.6666 17.8916C50.5615 17.0607 50.096 16.4238 49.278 16.1361C48.2143 15.7627 47.1377 15.4297 46.0805 15.0433C45.817 14.9479 45.5503 14.7556 45.379 14.5357C44.6952 13.6644 44.0744 12.743 43.3729 11.8862C43.1207 11.5775 42.7408 11.3075 42.3658 11.1782C41.5236 10.8905 40.8446 11.196 40.232 12.0075C39.5045 12.9709 38.9371 14.1575 38.0028 14.8364C37.07 15.5153 35.7687 15.6899 34.6275 16.0795C33.129 16.5919 32.7135 17.8205 33.6075 19.1089C34.3074 20.1176 35.2709 21.039 35.633 22.1576C35.9951 23.2779 35.759 24.5921 35.7849 25.8206C35.8156 27.3499 36.8777 28.108 38.3584 27.6538C39.3784 27.3418 40.3904 27.0023 41.4169 26.7178C41.7046 26.6386 42.0538 26.6418 42.3415 26.7227C43.3858 27.0185 44.4139 27.3741 45.4549 27.6877C46.8144 28.0967 47.8991 27.3111 47.9331 25.9015C47.9589 24.833 47.9411 23.7628 47.9977 22.6975C48.0171 22.3403 48.1384 21.9475 48.3323 21.65C48.9143 20.7561 49.5754 19.9139 50.1655 19.0232C50.3869 18.6837 50.5017 18.2715 50.6666 17.8916Z" fill="#FF9900"/>
<path d="M18.4235 36.4945C26.7857 36.4945 35.1464 36.4945 43.5103 36.4945C42.7844 42.6389 37.1654 47.4383 30.7769 47.3462C23.973 47.2492 19.096 41.9616 18.4235 36.4945Z" fill="#FF9900"/>
<path d="M15.9163 18.7791C17.869 18.4881 19.2269 17.6184 20.0545 15.8969C20.9404 17.5667 22.2643 18.5059 24.07 18.75C23.5575 19.5599 22.9562 20.2227 22.7008 20.9986C22.4535 21.7519 22.5634 22.6232 22.5084 23.5769C20.8871 22.7202 19.2819 22.7024 17.5231 23.6642C17.8286 21.7034 17.3938 20.1321 15.9163 18.7791Z" fill="#FF9900"/>
<path d="M41.8598 15.9243C42.7392 17.5861 44.0453 18.5237 46.0288 18.7516C44.5917 20.1467 44.0437 21.6613 44.4527 23.661C42.6681 22.7185 41.0645 22.7056 39.3057 23.6626C39.6096 21.7018 39.1748 20.1321 37.6843 18.7662C39.6743 18.5204 40.9772 17.5764 41.8598 15.9243Z" fill="#FF9900"/>
</g>
<defs>
<clipPath id="clip0_1811_203">
<rect width="61.945" height="62" fill="white"/>
</clipPath>
</defs>
</svg>
