<svg width="63" height="66" viewBox="0 0 63 66" fill="none" xmlns="http://www.w3.org/2000/svg">
<g clip-path="url(#clip0_1811_124)">
<path d="M30.8569 0C31.2844 0 31.712 0 32.1395 0C33.869 0.279319 35.1837 1.25128 36.3699 2.48158C37.3375 3.48422 38.3694 4.42228 39.3611 5.4007C39.906 5.93835 40.5425 6.14825 41.2915 6.03846C42.8988 5.80434 44.5093 5.59445 46.1118 5.33612C49.6415 4.76457 52.3835 6.62293 53.094 10.1411C53.4218 11.7588 53.6983 13.3895 53.9474 15.0219C54.0921 15.9696 54.5164 16.6332 55.3876 17.0707C56.8583 17.8086 58.3048 18.5981 59.7498 19.386C62.7973 21.0474 63.8115 24.1893 62.3183 27.3377C61.6111 28.8296 60.8958 30.3166 60.1468 31.7875C59.7193 32.6254 59.7273 33.4036 60.1565 34.2384C60.8814 35.6495 61.558 37.0832 62.2492 38.5105C63.8501 41.8123 62.8342 44.9655 59.618 46.6882C58.1859 47.4552 56.7602 48.235 55.3137 48.9761C54.5421 49.3716 54.1146 49.9658 53.9748 50.8134C53.7192 52.3796 53.4331 53.9425 53.1759 55.5086C52.5828 59.1236 50.0192 61.1143 46.4108 60.7026C44.7761 60.5153 43.1479 60.2715 41.5246 60.0035C40.6261 59.855 39.8996 60.0503 39.2502 60.7059C38.0721 61.8909 36.8634 63.047 35.6563 64.203C33.1521 66.6022 29.8378 66.6006 27.3353 64.1998C26.0976 63.0131 24.868 61.8183 23.6465 60.6154C23.1016 60.0794 22.4732 59.8566 21.7209 59.968C20.0927 60.2053 18.4613 60.4217 16.8363 60.6784C13.3388 61.2306 10.6064 59.3674 9.90723 55.888C9.57773 54.2476 9.30128 52.5959 9.04089 50.9442C8.89624 50.0223 8.47351 49.3733 7.62646 48.947C6.17507 48.2172 4.7526 47.4326 3.32209 46.6608C0.181417 44.9671 -0.837615 41.8026 0.718258 38.5686C1.40619 37.1397 2.07643 35.7012 2.80936 34.2949C3.26745 33.4166 3.2787 32.6125 2.82061 31.7293C2.07 30.2843 1.37565 28.8102 0.678075 27.3377C-0.813506 24.1926 0.203919 21.0426 3.24494 19.3828C4.7092 18.5852 6.17667 17.7925 7.66343 17.0368C8.46066 16.6316 8.88659 16.0181 9.02643 15.1462C9.28199 13.5575 9.55684 11.972 9.83812 10.3881C10.473 6.81506 13.0672 4.86306 16.629 5.30383C18.262 5.50565 19.8886 5.75106 21.5136 6.01101C22.3864 6.15147 23.1 5.94804 23.7301 5.3119C24.6784 4.35124 25.6894 3.45193 26.6264 2.47996C27.8126 1.25128 29.1274 0.279319 30.8569 0ZM46.0315 20.5453C45.89 19.3812 45.0414 18.5432 43.9693 18.5497C43.3151 18.5545 42.8538 18.9033 42.4182 19.3408C34.2435 27.5573 26.0639 35.7722 17.8875 43.9871C17.7364 44.1389 17.5805 44.2906 17.46 44.465C17.0372 45.0818 16.9778 45.7486 17.3153 46.4138C17.6512 47.0774 18.2122 47.4245 18.9644 47.4519C19.7006 47.4778 20.1908 47.0531 20.6698 46.5704C27.8769 39.3242 35.0889 32.0829 42.2977 24.84C43.2653 23.868 44.2586 22.9203 45.1876 21.9128C45.5444 21.5269 45.755 21.0054 46.0315 20.5453ZM39.157 36.192C35.3702 36.1468 32.1941 39.2274 32.1411 42.9941C32.0865 46.8981 35.1789 50.103 39.0316 50.1337C42.804 50.1644 45.964 47.0612 46.0106 43.2815C46.0604 39.3824 43.021 36.2388 39.157 36.192ZM23.8988 29.8161C27.7162 29.829 30.8472 26.7129 30.8601 22.8864C30.8729 19.0583 27.7757 15.9034 23.9728 15.8679C20.1763 15.834 17.0115 18.9646 16.9858 22.7798C16.9601 26.6661 20.0413 29.8032 23.8988 29.8161Z" fill="#FF9900"/>
<path d="M39.0849 46.3039C37.3425 46.3088 35.949 44.9267 35.9297 43.1765C35.9104 41.4328 37.3731 39.9603 39.1042 39.9829C40.8224 40.0055 42.2432 41.4489 42.2336 43.162C42.2223 44.9041 40.824 46.2991 39.0849 46.3039Z" fill="#FF9900"/>
<path d="M23.9424 19.6993C25.6783 19.709 27.0735 21.1185 27.0703 22.8574C27.0654 24.5801 25.6398 26.017 23.9296 26.0235C22.2033 26.03 20.7294 24.5349 20.7664 22.8121C20.8034 21.062 22.2017 19.6896 23.9424 19.6993Z" fill="#FF9900"/>
</g>
<defs>
<clipPath id="clip0_1811_124">
<rect width="63" height="66" fill="white"/>
</clipPath>
</defs>
</svg>
