<svg width="148" height="16" viewBox="0 0 148 16" fill="none" xmlns="http://www.w3.org/2000/svg">
<g clip-path="url(#clip0_3_15)">
<path d="M13.5 1V15H10.84L3.85997 6.5V15H0.659973V1H3.33997L10.3 9.5V1H13.5Z" fill="#8ED000"/>
<path d="M27.65 12.4V15H16.81V1H27.39V3.6H20.03V6.64H26.53V9.16H20.03V12.4H27.65Z" fill="#8ED000"/>
<path d="M38.91 15L35.53 10.14L32.21 15H28.49L33.67 7.88L28.75 1H32.43L35.65 5.54L38.81 1H42.31L37.43 7.76L42.65 15H38.91Z" fill="#8ED000"/>
<path d="M46.67 3.64H42.19V1H54.39V3.64H49.91V15H46.67V3.64Z" fill="#8ED000"/>
<path d="M72.63 12.4V15H61.79V1H72.37V3.6H65.01V6.64H71.51V9.16H65.01V12.4H72.63Z" fill="#3696F0"/>
<path d="M88.05 1V15H85.39L78.41 6.5V15H75.21V1H77.89L84.85 9.5V1H88.05Z" fill="#3696F0"/>
<path d="M102.2 12.4V15H91.36V1H101.94V3.6H94.58V6.64H101.08V9.16H94.58V12.4H102.2Z" fill="#3696F0"/>
<path d="M113.7 15L111 11.1H108.02V15H104.78V1H110.84C112.08 1 113.15 1.21 114.06 1.62C114.98 2.03 115.69 2.62 116.18 3.38C116.67 4.14 116.92 5.04 116.92 6.08C116.92 7.12 116.67 8.02 116.16 8.78C115.67 9.53 114.96 10.1 114.04 10.5L117.18 15H113.7ZM113.64 6.08C113.64 5.29 113.39 4.69 112.88 4.28C112.37 3.85 111.63 3.64 110.66 3.64H108.02V8.52H110.66C111.63 8.52 112.37 8.31 112.88 7.88C113.39 7.45 113.64 6.85 113.64 6.08Z" fill="#3696F0"/>
<path d="M128.95 7.78001H131.91V13.46C131.15 14.03 130.27 14.47 129.27 14.78C128.27 15.09 127.26 15.24 126.25 15.24C124.79 15.24 123.49 14.93 122.33 14.32C121.17 13.69 120.25 12.83 119.59 11.74C118.93 10.63 118.61 9.39001 118.61 8.00001C118.61 6.61001 118.93 5.37001 119.59 4.28001C120.25 3.17001 121.17 2.31001 122.35 1.70001C123.52 1.07001 124.84 0.76001 126.31 0.76001C127.53 0.76001 128.65 0.970009 129.65 1.38001C130.65 1.79001 131.49 2.39001 132.17 3.18001L130.09 5.10001C129.09 4.05001 127.88 3.52001 126.47 3.52001C125.57 3.52001 124.78 3.71001 124.09 4.08001C123.4 4.45001 122.85 4.98001 122.47 5.66001C122.09 6.34001 121.89 7.12001 121.89 8.00001C121.89 8.87001 122.08 9.64001 122.47 10.32C122.86 11 123.39 11.53 124.07 11.92C124.76 12.29 125.55 12.48 126.43 12.48C127.36 12.48 128.2 12.28 128.95 11.88V7.78001Z" fill="#3696F0"/>
<path d="M141.64 10.04V15H138.4V10L132.98 1H136.42L140.16 7.22L143.9 1H147.08L141.64 10.04Z" fill="#3696F0"/>
</g>
<defs>
<clipPath id="clip0_3_15">
<rect width="148" height="16" fill="white"/>
</clipPath>
</defs>
</svg>
