<svg width="27" height="48" viewBox="0 0 27 48" fill="none" xmlns="http://www.w3.org/2000/svg">
<path d="M0 24.0082C0 16.9641 0 9.93289 0 2.88872C0 1.40711 0.822534 0.289396 2.18037 0.0814498C2.8854 -0.0355198 3.61654 0.0164667 4.33462 0.0294633C4.43907 0.0294633 4.59574 0.237409 4.63491 0.380372C5.05271 1.58906 5.43133 2.81074 5.83607 4.03242C6.04497 4.65626 6.3322 4.8772 6.98501 4.8772C11.3327 4.8772 15.6673 4.8772 20.015 4.8772C20.6547 4.8772 20.955 4.65626 21.1509 4.01943C21.5426 2.83673 21.9473 1.65404 22.3129 0.458352C22.4173 0.0944464 22.587 -0.0225232 22.9657 0.00347005C23.4096 0.0424599 23.8404 0.00347005 24.2843 0.0164667C25.7727 0.0424599 26.8825 1.08219 26.9869 2.5638C27 2.70677 27 2.84973 27 3.00569C27 17.0161 27 31.0264 27 45.0368C27 46.6094 26.2036 47.6751 24.8066 47.948C24.5846 47.987 24.3496 48 24.1277 48C17.0382 48 9.9618 48 2.87234 48C1.10977 47.987 0 46.8823 0 45.1147C0 38.0836 0 31.0394 0 24.0082ZM13.5131 43.6201C14.8839 43.6071 16.0068 42.5024 16.0068 41.1378C16.0068 39.7601 14.8709 38.6294 13.4739 38.6294C12.103 38.6424 10.9802 39.7601 10.9802 41.1248C10.9802 42.5024 12.1161 43.6331 13.5131 43.6201Z" fill="#FF9900"/>
</svg>
