<svg width="53" height="54" viewBox="0 0 53 54" fill="none" xmlns="http://www.w3.org/2000/svg">
<path d="M24.6436 40.5333C21.7575 39.9312 19.4733 38.48 17.8219 36.087C16.5871 34.2807 16.0161 32.2737 16.0007 30.0969C16.0007 28.2134 16.0007 26.3145 16.0007 24.431C16.0007 21.93 17.1891 20.4016 19.7048 19.7377C19.7048 19.5525 19.7048 19.3518 19.7048 19.1356C19.7048 17.4992 19.6894 15.8627 19.7048 14.2262C19.7202 13.2073 20.353 12.4817 21.3099 12.3273C22.1433 12.2038 22.9768 12.6824 23.27 13.5161C23.3626 13.794 23.3935 14.1182 23.3935 14.4269C23.4089 15.9553 23.3935 17.4683 23.3935 18.9967C23.3935 19.1974 23.3935 19.4135 23.3935 19.6606C25.4616 19.6606 27.468 19.6606 29.5516 19.6606C29.567 19.4599 29.5825 19.2592 29.5825 19.0585C29.5825 17.4992 29.5825 15.9399 29.5825 14.3806C29.5825 13.1456 30.3387 12.3119 31.4345 12.3119C32.5149 12.3119 33.2712 13.1764 33.2866 14.3961C33.2866 16.1715 33.2866 17.9315 33.2866 19.7223C33.6416 19.8304 33.9811 19.9076 34.2898 20.0465C35.9567 20.7876 36.9136 22.0844 36.9599 23.9061C37.0216 26.3299 37.0525 28.7692 36.8981 31.1776C36.6203 35.5621 33.3175 39.3291 29.0269 40.3634C28.8262 40.4098 28.6101 40.4561 28.3786 40.5178C28.3786 43.4048 28.3786 46.2763 28.3786 49.2096C30.6474 49.0553 32.8236 48.5612 34.8763 47.6967C42.4235 44.5164 47.1463 38.9122 48.8594 30.8997C51.0973 20.417 45.109 9.37859 35.1232 5.38004C23.0848 0.563263 9.71906 6.42985 5.11975 18.549C1.26128 28.7383 5.32039 40.3326 14.7351 46.0293C15.3061 46.3844 15.8309 46.7549 15.9698 47.4651C16.1087 48.237 15.8926 48.8854 15.2444 49.3486C14.5807 49.8117 13.8862 49.8272 13.1762 49.4103C11.2316 48.2833 9.44125 46.9402 7.86699 45.35C1.89407 39.2673 -0.745127 31.9495 0.180907 23.4738C1.35388 12.528 9.34864 3.49656 19.998 0.810277C34.6294 -2.8795 49.415 6.39898 52.4555 21.189C55.2336 34.6975 47.0691 48.1598 33.8114 51.9731C31.4809 52.637 29.1195 52.992 26.6963 53.0075C25.369 53.0075 24.6282 52.2664 24.6282 50.9387C24.6282 47.6967 24.6282 44.4701 24.6282 41.228C24.6436 41.0119 24.6436 40.7957 24.6436 40.5333ZM25.7549 31.6562C25.5851 33.0456 25.3999 34.3579 25.261 35.6702C25.2456 35.8863 25.369 36.1024 25.4153 36.3186C25.5851 36.1951 25.8012 36.087 25.9092 35.9172C27.1748 33.7712 28.4404 31.6099 29.6905 29.4485C30.0146 28.8927 29.922 28.7383 29.2738 28.7383C28.6101 28.7383 27.9465 28.7383 27.2057 28.7383C27.3754 27.3489 27.5606 26.0366 27.6995 24.7243C27.715 24.5082 27.5915 24.2921 27.5452 24.0759C27.3754 24.1994 27.1594 24.3075 27.0513 24.4773C25.7857 26.6233 24.5202 28.7846 23.27 30.946C22.9459 31.5018 23.0385 31.6562 23.6867 31.6562C24.3658 31.6562 25.0295 31.6562 25.7549 31.6562Z" fill="#FF9900"/>
</svg>
